<svg xmlns="http://www.w3.org/2000/svg" viewBox="0 0 32 32" width="32" height="32">
  <defs>
    <linearGradient id="fav-core" x1="0%" y1="0%" x2="100%" y2="100%">
      <stop offset="0%" stop-color="#06b6d4"/>
      <stop offset="50%" stop-color="#8b5cf6"/>
      <stop offset="100%" stop-color="#ec4899"/>
    </linearGradient>
    <linearGradient id="fav-orbit" x1="0%" y1="0%" x2="100%" y2="0%">
      <stop offset="0%" stop-color="#8b5cf6" stop-opacity="0.2"/>
      <stop offset="50%" stop-color="#8b5cf6" stop-opacity="0.9"/>
      <stop offset="100%" stop-color="#8b5cf6" stop-opacity="0.2"/>
    </linearGradient>
    <radialGradient id="fav-glow" cx="50%" cy="50%" r="50%">
      <stop offset="0%" stop-color="#8b5cf6" stop-opacity="0.3"/>
      <stop offset="100%" stop-color="#8b5cf6" stop-opacity="0"/>
    </radialGradient>
  </defs>

  <!-- Background glow -->
  <circle cx="16" cy="16" r="15" fill="url(#fav-glow)"/>

  <!-- Orbital rings -->
  <ellipse cx="16" cy="16" rx="12" ry="4.5" fill="none" stroke="url(#fav-orbit)" stroke-width="0.8" transform="rotate(-30, 16, 16)"/>
  <ellipse cx="16" cy="16" rx="12" ry="4.5" fill="none" stroke="url(#fav-orbit)" stroke-width="0.8" transform="rotate(30, 16, 16)"/>
  <ellipse cx="16" cy="16" rx="12" ry="4.5" fill="none" stroke="url(#fav-orbit)" stroke-width="0.8" transform="rotate(90, 16, 16)"/>

  <!-- Central qubit -->
  <circle cx="16" cy="16" r="6" fill="url(#fav-core)"/>
  <circle cx="16" cy="16" r="4.5" fill="none" stroke="white" stroke-width="0.5" opacity="0.3"/>

  <!-- Quantum state symbol -->
  <g transform="translate(16, 16)">
    <line x1="0" y1="-3" x2="0" y2="3" stroke="white" stroke-width="1" stroke-linecap="round"/>
    <line x1="-2" y1="-2" x2="0" y2="-3" stroke="white" stroke-width="0.8" stroke-linecap="round"/>
    <line x1="2" y1="-2" x2="0" y2="-3" stroke="white" stroke-width="0.8" stroke-linecap="round"/>
    <line x1="-2.5" y1="3" x2="2.5" y2="3" stroke="white" stroke-width="1" stroke-linecap="round"/>
  </g>

  <!-- Electron particles -->
  <circle cx="28" cy="16" r="1.5" fill="#06b6d4"/>
  <circle cx="16" cy="4" r="1.2" fill="#8b5cf6"/>
  <circle cx="7" cy="24" r="1.2" fill="#ec4899"/>
</svg>
